# xmcd CD database file
#
# Track frame offsets:
#	150
#	12357
#	27717
#	40950
#	51790
#	64617
#	78222
#	92452
#	105670
#	118815
#	132417
#	146565
#	159292
#	172317
#	186650
#	200955
#	214555
#	226915
#	238657
#	252202
#	267180
#	281122
#
# Disc length: 3923 seconds
#
# Revision: 0
# Processed by: cddbd v1.5PL3 Copyright (c) Steve Scherf et al.
# Submitted via: CDex 1.51
#
DISCID=470f5116
DTITLE=Hatchett's Swingtette feat. Stephane Grapelli - Hatchett's Swingtette
DYEAR=1992
DGENRE=Jazz
TTITLE0=Alexander's ragtime band
TTITLE1=Ting-A-Ling
TTITLE2=Beat me Daddy, eight to the bar
TTITLE3=Playmates
TTITLE4=Oh, Johnny!, oh, Johnny!, oh!
TTITLE5=Sweet potato piper
TTITLE6=Sheik of Araby
TTITLE7=Oh! How he misses his missus
TTITLE8=I hear bluebirds
TTITLE9=Wrap yourself in cotton wool
TTITLE10=Scrub me Mama with a boogie beat
TTITLE11=Blue ribbon rag
TTITLE12=Twelfth street rag
TTITLE13=She had those dark and dreamy eyes
TTITLE14=Scatter-Brain
TTITLE15=In the mood
TTITLE16=I got rhythm
TTITLE17=It's a hap-hap-happy day
TTITLE18=Papa's in bed with his breeches on
TTITLE19=Mind the handel's hot
TTITLE20=Ma, he's making eyes at me
TTITLE21=Bluebirds in the moonlight
EXTD=YEAR: 1992
EXTT0=
EXTT1=
EXTT2=
EXTT3=
EXTT4=
EXTT5=
EXTT6=
EXTT7=
EXTT8=
EXTT9=
EXTT10=
EXTT11=
EXTT12=
EXTT13=
EXTT14=
EXTT15=
EXTT16=
EXTT17=
EXTT18=
EXTT19=
EXTT20=
EXTT21=
PLAYORDER=
